#!OML:ASF G:\JayActor3\Patient Classification 1\Patient 1\Session 6\male.ASF
:FULLY-SPECIFIED
:DEGREES
984
root -1.50079 16.249 -21.6855 173.861 -33.3688 -174.104
lowerback -1.43773 -0.401851 1.33485
upperback 3.56962 -0.650132 -0.231437
thorax 4.46816 -0.302775 -1.02343
lowerneck 6.43878 -2.80125 1.02965
upperneck -17.0684 -3.7927 2.68202
head -6.19938 -2.32454 0.975293
rclavicle -1.33186e-014 0
rhumerus 30.74 0.563409 -25.6944
rradius 129.323
rwrist -41.9483
rhand -37.2179 -20.5393
rfingers 7.12502
rthumb -10.2848 -50.2678
lclavicle -1.33186e-014 0
lhumerus -32.7148 7.72891 79.2099
lradius 26.7727
lwrist 16.8992
lhand -17.2166 11.0275
lfingers 7.12502
lthumb 9.02631 40.8144
rfemur -13.941 8.67808 18.3585
rtibia 36.0551
rfoot -18.5784 -10.6458
rtoes -1.19187
lfemur -1.27301 11.6913 -18.3048
ltibia 26.694
lfoot -23.8381 16.7422
ltoes -2.28891
985
root -1.50102 16.2494 -21.6891 173.868 -33.3858 -174.088
lowerback -1.42664 -0.409942 1.35108
upperback 3.54268 -0.660526 -0.22101
thorax 4.43345 -0.307538 -1.02196
lowerneck 6.47244 -2.81145 1.02387
upperneck -17.3999 -3.82781 2.68046
head -6.30996 -2.35332 0.9856
rclavicle 2.1419e-014 -1.90833e-014
rhumerus 30.9148 0.286217 -25.6846
rradius 129.251
rwrist -41.8457
rhand -37.1662 -20.5246
rfingers 7.12502
rthumb -10.235 -50.2556
lclavicle 2.1419e-014 -1.90833e-014
lhumerus -32.7335 7.75642 79.2023
lradius 26.7512
lwrist 16.888
lhand -17.2035 11.0176
lfingers 7.12502
lthumb 9.03894 40.8039
rfemur -13.9436 8.66928 18.3779
rtibia 36.0571
rfoot -18.6021 -10.6416
rtoes -1.15764
lfemur -1.27736 11.6596 -18.2904
ltibia 26.6866
lfoot -23.8423 16.7505
ltoes -2.28384
986
root -1.50119 16.2497 -21.6926 173.873 -33.3996 -174.07
lowerback -1.41535 -0.417926 1.37023
upperback 3.51588 -0.670925 -0.209713
thorax 4.39878 -0.312235 -1.02121
lowerneck 6.52017 -2.81599 1.00509
upperneck -17.7433 -3.85559 2.69029
head -6.42666 -2.37902 1.00182
rclavicle 5.30755e-014 -7.15625e-015
rhumerus 31.1318 0.0578691 -25.7139
rradius 129.138
rwrist -41.6988
rhand -37.1143 -20.4978
rfingers 7.12502
rthumb -10.1849 -50.2313
lclavicle 5.30755e-014 -7.15625e-015
lhumerus -32.7512 7.78603 79.1922
lradius 26.7297
lwrist 16.8801
lhand -17.191 11.0177
lfingers 7.12502
lthumb 9.05102 40.8035
rfemur -13.9447 8.6638 18.4005
rtibia 36.0555
rfoot -18.6255 -10.6346
rtoes -1.1157
lfemur -1.28486 11.6303 -18.2723
ltibia 26.6861
lfoot -23.8501 16.7585
ltoes -2.28179
987
root -1.50136 16.25 -21.6962 173.876 -33.4129 -174.052
lowerback -1.40254 -0.42484 1.38825
upperback 3.48874 -0.679794 -0.199025
thorax 4.36293 -0.31622 -1.02037
lowerneck 6.57885 -2.81762 0.980262
upperneck -18.0936 -3.87966 2.70623
head -6.5476 -2.40324 1.02128
rclavicle 1.27222e-014 -1.59028e-014
rhumerus 31.3487 -0.158192 -25.7476
rradius 129.018
rwrist -41.5469
rhand -37.0614 -20.4641
rfingers 7.12502
rthumb -10.1339 -50.2
lclavicle 1.27222e-014 -1.59028e-014
lhumerus -32.7702 7.81723 79.1792
lradius 26.7123
lwrist 16.8736
lhand -17.1755 11.0371
lfingers 7.12502
lthumb 9.06604 40.8222
rfemur -13.9423 8.65647 18.4225
rtibia 36.0514
rfoot -18.641 -10.6358
rtoes -1.07658
lfemur -1.29207 11.6063 -18.2533
ltibia 26.6911
lfoot -23.8592 16.7634
ltoes -2.29135
988
root -1.50147 16.2502 -21.7 173.876 -33.425 -174.035
lowerback -1.38529 -0.43135 1.40363
upperback 3.46161 -0.687999 -0.188191
thorax 4.32462 -0.320019 -1.01781
lowerneck 6.63965 -2.81531 0.956172
upperneck -18.4416 -3.89913 2.71953
head -6.66868 -2.42506 1.03964
rclavicle -6.75371e-014 7.95139e-015
rhumerus 31.5554 -0.350708 -25.7706
rradius 128.893
rwrist -41.3883
rhand -37.0308 -20.3986
rfingers 7.12502
rthumb -10.1044 -50.136
lclavicle -6.75371e-014 7.95139e-015
lhumerus -32.7943 7.85199 79.1622
lradius 26.7038
lwrist 16.8713
lhand -17.1544 11.0746
lfingers 7.12502
lthumb 9.08634 40.8589
rfemur -13.9343 8.647 18.4449
rtibia 36.0458
rfoot -18.6536 -10.6357
rtoes -1.04404
lfemur -1.29579 11.5905 -18.2318
ltibia 26.7006
lfoot -23.8679 16.7633
ltoes -2.31312
989
root -1.50148 16.2502 -21.7039 173.868 -33.4305 -174.011
lowerback -1.3635 -0.434704 1.4232
upperback 3.43512 -0.692185 -0.176112
thorax 4.28448 -0.321755 -1.01606
lowerneck 6.69852 -2.81086 0.939669
upperneck -18.7872 -3.9168 2.72449
head -6.78941 -2.44587 1.05408
rclavicle 6.43068e-014 7.95139e-016
rhumerus 31.7222 -0.561491 -25.7595
rradius 128.798
rwrist -41.2659
rhand -37.0129 -20.3327
rfingers 7.12502
rthumb -10.0871 -50.071
lclavicle 6.43068e-014 7.95139e-016
lhumerus -32.8219 7.88702 79.144
lradius 26.7012
lwrist 16.8632
lhand -17.1464 11.1092
lfingers 7.12502
lthumb 9.09404 40.8932
rfemur -13.9214 8.64377 18.476
rtibia 36.0382
rfoot -18.6623 -10.642
rtoes -1.02965
lfemur -1.29585 11.5794 -18.2014
ltibia 26.715
lfoot -23.878 16.7645
ltoes -2.34707
990
root -1.50136 16.2502 -21.7079 173.851 -33.4314 -173.977
lowerback -1.33957 -0.436998 1.45049
upperback 3.41009 -0.695351 -0.162161
thorax 4.24467 -0.322801 -1.01665
lowerneck 6.74906 -2.80352 0.934767
upperneck -19.1266 -3.93226 2.71591
head -6.90766 -2.46527 1.06198
rclavicle -6.21699e-014 7.95139e-016
rhumerus 31.8483 -0.797919 -25.7106
rradius 128.735
rwrist -41.1854
rhand -37.0034 -20.2747
rfingers 7.12502
rthumb -10.0779 -50.0133
lclavicle -6.21699e-014 7.95139e-016
lhumerus -32.8518 7.92322 79.1232
lradius 26.7053
lwrist 16.8554
lhand -17.132 11.1398
lfingers 7.12502
lthumb 9.10793 40.9232
rfemur -13.9053 8.64373 18.5189
rtibia 36.0278
rfoot -18.6671 -10.6528
rtoes -1.0408
lfemur -1.29575 11.5725 -18.159
ltibia 26.7347
lfoot -23.8903 16.7633
ltoes -2.37781
